<svg width="154" height="135" viewBox="0 0 154 135" fill="none" xmlns="http://www.w3.org/2000/svg">
<path d="M150.534 134.609H3.59168C-0.419029 130.899 -1.07077 127.791 1.63646 125.284L61.6466 2.25602C63.2509 0.752007 65.156 0 67.3619 0C69.5678 0 71.4729 0.752007 73.0772 2.25602L99.8486 57.0022L104.962 40.7588C106.466 39.2548 108.346 38.5028 110.602 38.5028C112.858 38.5028 114.789 39.2548 116.393 40.7588L152.339 125.284C155.046 127.791 154.444 130.899 150.534 134.609ZM67.3619 19.2514L48.2609 57.6038C48.2609 58.3056 48.1857 59.3083 48.0353 60.6118C47.8849 61.9153 47.8348 62.8678 47.8849 63.4694C47.935 64.071 48.0854 64.7478 48.3361 65.4999C48.5868 66.2519 49.0881 66.7532 49.8401 67.0039C50.5921 67.2545 51.67 67.3297 53.0738 67.2295C55.1794 67.1292 57.0594 66.5527 58.7138 65.4999C60.3682 64.447 61.6717 63.3441 62.6243 62.191C63.5768 61.0379 64.8803 59.9851 66.5347 59.0326C68.1891 58.08 70.0691 57.6038 72.1748 57.6038C73.9796 57.6038 75.6841 58.2806 77.2884 59.6342C78.8927 60.9878 80.3215 62.6422 81.5749 64.5974C82.8282 66.5527 84.1317 68.4828 85.4853 70.3879C86.8389 72.293 88.4432 73.8722 90.2981 75.1255C92.1531 76.3789 94.1334 76.9554 96.239 76.8552L67.3619 19.2514Z" fill="#2078DB"/>
</svg>
