<svg width="133" height="133" viewBox="0 0 133 133" fill="none" xmlns="http://www.w3.org/2000/svg">
<path d="M103.828 98.4293C94.3736 88.9756 81.5508 83.6646 68.1805 83.6646C54.8102 83.6646 41.9873 88.9756 32.5325 98.4293" stroke="#2078DB" stroke-width="11.3022" stroke-linecap="round" stroke-linejoin="round"/>
<path d="M106.833 11.4035C97.5695 6.0552 86.5607 4.60584 76.2284 7.37423C65.896 10.1426 57.0866 16.902 51.7379 26.1655L121.595 66.4988C126.944 57.2351 128.393 46.2263 125.625 35.8939C122.856 25.5616 116.097 16.7522 106.833 11.4035Z" stroke="#2078DB" stroke-width="11.3022" stroke-linecap="round" stroke-linejoin="round"/>
<path d="M98.3096 53.0544C109.455 33.7616 113.267 15.1141 106.833 11.4035C100.4 7.6928 86.1625 20.3171 75.0238 39.6099" stroke="#2078DB" stroke-width="11.3022" stroke-linecap="round" stroke-linejoin="round"/>
<path d="M86.6667 46.3321L66.5 81.2608L86.6667 46.3321Z" fill="white"/>
<path d="M86.6667 46.3321L66.5 81.2608" stroke="#2078DB" stroke-width="11.3022" stroke-linecap="round" stroke-linejoin="round"/>
<path d="M6 115.235C8.09258 114.194 10.3862 113.621 12.7222 113.554C15.3405 113.5 17.9328 114.083 20.2751 115.254C22.6175 116.425 24.6396 118.149 26.1667 120.277C27.6938 122.404 29.7158 124.128 32.0582 125.299C34.4006 126.47 36.9928 127.054 39.6111 126.999C42.2294 127.054 44.8217 126.47 47.164 125.299C49.5064 124.128 51.5285 122.404 53.0556 120.277C54.5826 118.149 56.6047 116.425 58.9471 115.254C61.2894 114.083 63.8817 113.5 66.5 113.554C69.1183 113.5 71.7106 114.083 74.0529 115.254C76.3953 116.425 78.4174 118.149 79.9444 120.277C81.4715 122.404 83.4936 124.128 85.836 125.299C88.1783 126.47 90.7706 127.054 93.3889 126.999C96.0072 127.054 98.5994 126.47 100.942 125.299C103.284 124.128 105.306 122.404 106.833 120.277C108.36 118.149 110.382 116.425 112.725 115.254C115.067 114.083 117.66 113.5 120.278 113.554C122.614 113.621 124.907 114.194 127 115.235" stroke="#2078DB" stroke-width="11.3022" stroke-linecap="round" stroke-linejoin="round"/>
</svg>
