<svg width="144" height="136" viewBox="0 0 144 136" fill="none" xmlns="http://www.w3.org/2000/svg">
<path d="M34.016 117.734L58.3798 88.1907L69.5247 102.406L48.0436 129.723C39.8169 140.176 24.5939 129.16 34.016 117.734ZM62.4698 50.4554C64.7902 42.8849 63.7237 36.416 55.0048 26.8064L33.6995 1.17684C30.676 -2.37403 23.5509 2.84095 26.5275 7.14184L43.567 28.1306C46.7897 32.0448 40.8013 37.2246 37.4731 33.1933L19.8476 11.4896C16.5663 7.72779 9.78098 12.6967 13.2147 16.9975C18.1835 22.9743 25.8712 32.7362 30.8401 38.7129C34.2855 42.2169 29.0471 47.4085 25.6486 43.0373L8.15204 21.4742C5.58557 18.6851 1.39015 20.4195 0.276841 23.6774C-0.918501 27.158 2.02298 29.701 4.02693 32.2792L23.5509 57.4986C29.6096 64.5183 36.3832 68.6785 44.2584 66.323C45.4655 65.9597 46.9421 65.2214 48.5241 64.2487L100.979 131.961C103.803 135.606 109.252 135.993 112.791 133.051L113.6 132.383C117.584 129.067 118.229 123.008 114.819 119.094L59.2705 55.2719C60.8877 53.4672 62.0713 51.7562 62.4698 50.4554ZM77.3178 65.2214L85.9547 54.7446C74.8451 27.2048 116.014 -9.4992 135.972 7.37622C160.218 27.8963 124.182 77.3506 98.8574 65.1276L88.6267 78.1241L77.3178 65.2214Z" fill="#2078DB"/>
</svg>
